<svg width="54" height="41" viewBox="0 0 54 41" fill="none" xmlns="http://www.w3.org/2000/svg">
<path d="M53.5099 33.8626C53.5099 35.0318 53.181 36.1157 52.6542 37.0693L35.8146 18.2283L52.4716 3.65496C53.1196 4.68325 53.5099 5.89113 53.5099 7.19641V33.8626ZM26.8433 21.6493L50.0209 1.36944C49.0698 0.848761 47.9987 0.529449 46.8434 0.529449H6.84314C5.68637 0.529449 4.615 0.848761 3.66773 1.36944L26.8433 21.6493ZM33.305 20.4224L27.94 25.1196C27.6262 25.393 27.2354 25.5295 26.8433 25.5295C26.4508 25.5295 26.0601 25.393 25.7463 25.1196L20.3801 20.4222L3.32753 39.504C4.34966 40.1453 5.54754 40.5294 6.84303 40.5294H46.8434C48.1386 40.5294 49.3371 40.1453 50.3589 39.504L33.305 20.4224ZM1.21502 3.65485C0.567162 4.68314 0.176514 5.89102 0.176514 7.19641V33.8627C0.176514 35.0319 0.503849 36.1158 1.03266 37.0695L17.8702 18.2251L1.21502 3.65485Z" fill="#FBFDFF"/>
</svg>
