<svg width="40" height="40" viewBox="0 0 40 40" fill="none" xmlns="http://www.w3.org/2000/svg">
<path d="M30.4107 26.4602C29.1039 25.17 27.4724 25.17 26.1739 26.4602C25.1834 27.4424 24.1929 28.4246 23.219 29.4235C22.9526 29.6982 22.7279 29.7565 22.4033 29.5734C21.7623 29.2237 21.0798 28.9407 20.4638 28.5578C17.5921 26.7515 15.1866 24.4291 13.0557 21.8154C11.9986 20.5169 11.058 19.1268 10.4004 17.5618C10.2672 17.2455 10.2922 17.0374 10.5502 16.7794C11.5408 15.8221 12.5063 14.8399 13.4802 13.8577C14.837 12.4925 14.837 10.8943 13.4719 9.52087C12.6978 8.73842 11.9237 7.97261 11.1495 7.19016C10.3505 6.39105 9.5597 5.58363 8.7523 4.79285C7.44546 3.51928 5.81401 3.51928 4.5155 4.80117C3.51665 5.7834 2.55941 6.7906 1.54391 7.75619C0.603329 8.64685 0.128874 9.7373 0.0289886 11.0109C-0.129163 13.0835 0.378587 15.0397 1.09443 16.9459C2.55941 20.8914 4.79018 24.3958 7.49541 27.6089C11.1495 31.954 15.5112 35.3918 20.6137 37.8724C22.911 38.9878 25.2916 39.8452 27.8803 39.9867C29.6616 40.0865 31.2098 39.6371 32.4501 38.2469C33.2991 37.298 34.2563 36.4323 35.1553 35.525C36.4871 34.1765 36.4954 32.545 35.1719 31.2132C33.5904 29.6233 32.0006 28.0417 30.4107 26.4602Z" fill="white"/>
<path d="M28.8214 19.8284L31.8929 19.304C31.4101 16.4822 30.0783 13.9267 28.0556 11.8957C25.9164 9.75643 23.2112 8.40795 20.2313 7.99175L19.7984 11.0799C22.1041 11.4046 24.2017 12.4451 25.8581 14.1015C27.423 15.6665 28.4468 17.6476 28.8214 19.8284Z" fill="white"/>
<path d="M33.624 6.47606C30.0781 2.93004 25.5916 0.690891 20.6389 0L20.2061 3.0882C24.4845 3.68752 28.3634 5.62701 31.4265 8.68191C34.3315 11.587 36.2377 15.2579 36.9285 19.295L40 18.7706C39.1926 14.0925 36.9868 9.84727 33.624 6.47606Z" fill="white"/>
</svg>
